<?xml version="1.0" encoding="UTF-8"?>
<svg id="Layer_1" data-name="Layer 1" xmlns="http://www.w3.org/2000/svg" viewBox="0 0 100 100">
  <defs>
    <style>
      .cls-1 {
        fill: #1fe5bf;
      }

      .cls-2 {
        fill: #0f7c90;
      }

      .cls-3 {
        fill: #1ee5be;
      }

      .cls-4 {
        fill: #21e5bf;
      }
    </style>
  </defs>
  <path className="cls-2" d="M43.01,25.64c1.78-1.13,3.39-2.15,4.99-3.17,3.39-2.16,6.91-1.39,9.08,2.01,1.1,1.73,2.2,3.45,3.3,5.18,.67,1.06,.59,1.44-.47,2.11-12.31,7.82-24.61,15.65-36.92,23.47-.27,.17-.54,.36-.78,.73h.95c14.13,0,28.25,0,42.38,0,1.59,0,1.8,.21,1.8,1.79,0,8.76,0,17.52,0,26.28,0,3.25-1.93,5.69-4.96,6.32-.49,.1-1,.11-1.51,.11-12.33,0-24.66,0-36.99,0-3.88,0-6.44-2.53-6.45-6.42-.02-8.06,0-16.12,0-24.18,0-.3,.08-.61-.13-.99-1,.63-1.98,1.26-2.97,1.88-1.08,.68-1.45,.6-2.12-.45-1.13-1.77-2.27-3.54-3.39-5.32-2.03-3.24-1.25-6.77,1.95-8.84,1.79-1.16,3.59-2.29,5.4-3.43-.07-.37-.4-.38-.62-.52-2.36-1.5-3.32-4.39-2.31-7,.99-2.56,3.62-4.11,6.34-3.58,3,.59,5.97,1.28,8.95,1.96,.58,.13,.81,.08,.95-.58,.85-3.97,1.74-7.94,2.65-11.9,.65-2.81,3.15-4.72,5.87-4.56,2.99,.18,5.25,2.35,5.54,5.35,.09,.94-.18,1.84-.34,2.75-.05,.27-.11,.54-.2,1Zm-25.03,30.32c3.83-2.42,7.67-4.84,11.51-7.25,.31-.19,.26-.35,.1-.6-1.66-2.6-3.31-5.19-4.96-7.8-.17-.27-.3-.41-.64-.19-3.29,2.13-6.59,4.24-9.89,6.35-.92,.58-1.88,1.1-2.76,1.74-1.6,1.16-2.12,3.37-1.14,5.1,1,1.75,2.14,3.41,3.2,5.12,.17,.27,.32,.32,.59,.14,1.33-.88,2.66-1.74,3.99-2.61Zm5.54,2.1c-1.12-.01-2.25,0-3.37-.05-.55-.02-.72,.16-.71,.71,.03,2.13,.01,4.27,.01,6.4,0,6.35,0,12.69,0,19.04,0,2.22,1.31,3.89,3.33,4.23,.8,.13,1.62,.1,2.43,.02,2.41,.01,4.83,0,7.24,.06,.63,.01,.79-.16,.79-.79-.03-4.88-.02-9.77-.02-14.65,0-4.74,0-9.49,0-14.23,0-.38,.1-.8-.54-.79-3.06,.03-6.11,.04-9.17,.06Zm24.61,15.14c0,4.83,.01,9.66-.02,14.49,0,.65,.18,.78,.79,.78,3.96-.03,7.92-.01,11.88-.02,2.85,0,4.51-1.65,4.51-4.48,0-8.37,0-16.74,.01-25.11,0-.64-.13-.87-.82-.86-5.2,.03-10.39,.03-15.59,0-.63,0-.79,.16-.79,.79,.03,4.8,.01,9.61,.01,14.41Zm-2.03,.07c0-4.8,0-9.6,.01-14.4,0-.61-.09-.88-.81-.87-3.09,.04-6.18,.04-9.27,0-.66,0-.78,.21-.78,.81,.02,9.63,.02,19.26,0,28.89,0,.67,.22,.77,.81,.77,3.09-.03,6.18-.03,9.27,0,.64,0,.78-.18,.78-.8-.03-4.8-.01-9.6-.01-14.4Zm5.59-49.97c-.87,0-1.65,.27-2.38,.73-3.92,2.5-7.85,5-11.78,7.48-.42,.27-.49,.44-.2,.88,1.45,2.23,2.87,4.49,4.29,6.73q.84,1.33,2.21,.46c4.64-2.95,9.27-5.89,13.9-8.84,.29-.19,.77-.28,.39-.85-1.07-1.61-2.06-3.27-3.14-4.88-.77-1.15-1.92-1.68-3.3-1.71Zm-16.48,9.72c-.07,.04-.14,.08-.21,.12-2.86,1.82-5.72,3.64-8.59,5.45-.31,.19-.25,.37-.1,.61,1.66,2.6,3.32,5.2,4.96,7.8,.19,.29,.33,.37,.66,.16,2.81-1.8,5.62-3.59,8.44-5.37,.31-.2,.35-.34,.15-.64-1.67-2.59-3.32-5.2-4.97-7.8-.09-.13-.14-.31-.34-.34Zm-3.65-.1c2.89-1.84,5.63-3.6,8.38-5.32,.49-.31,.75-.67,.84-1.25,.14-.94,.39-1.86,.59-2.79,.17-.8,.23-1.6-.05-2.4-.55-1.58-1.99-2.57-3.69-2.53-1.63,.04-3.07,1.1-3.46,2.69-.57,2.28-1.04,4.59-1.55,6.88-.34,1.52-.68,3.03-1.06,4.72Zm-3.96,2.51c-2.91-.64-5.57-1.26-8.26-1.79-2.05-.41-3.99,.88-4.39,2.82-.43,2.07,.75,3.91,2.81,4.5,.54,.15,.95,.08,1.41-.22,1.79-1.15,3.6-2.26,5.4-3.39,.94-.59,1.88-1.19,3.02-1.91Z"/>
  <path className="cls-1" d="M78.12,43.9c-.13,.77-.21,1.53-.39,2.26-.12,.49,.02,.79,.36,1.1,.52,.47,1.03,.95,1.51,1.47,.7,.76,.42,1.59-.6,1.8-.52,.11-1.05,.25-1.58,.24-.96-.03-1.4,.49-1.7,1.29-.18,.47-.42,.92-.67,1.36-.51,.88-1.4,.87-1.91-.02-.18-.31-.39-.64-.48-.98-.34-1.3-1.24-1.69-2.48-1.75-.69-.03-1.55,.07-1.87-.81-.33-.91,.45-1.36,.98-1.76,1.11-.83,1.4-1.79,.99-3.11-.19-.62-.52-1.4,.2-1.95,.77-.59,1.43,0,1.98,.39,1.14,.79,2.17,.81,3.27-.02,.29-.22,.63-.36,.97-.49,.75-.29,1.43,.22,1.41,1Zm-3.93,6.8c.3-1.34,1.16-1.9,2.48-1.83-.3-.63-.89-.85-1.08-1.41-.18-.54,.23-1.08-.03-1.73-.99,.88-2,.7-3.06,.02,.42,1.28,.11,2.24-.99,2.95q1.67,.56,2.69,2Z"/>
  <path className="cls-3" d="M80.62,21.03c-.62-.03-1.08-.4-1.48-.76-1.01-.91-2.02-1.01-3.16-.28-.28,.18-.61,.27-.93,.38-.9,.3-1.6-.3-1.41-1.22,.15-.71,.36-1.41,.58-2.11,.13-.42,.07-.75-.23-1.07-.48-.51-.92-1.06-1.37-1.6-.28-.34-.45-.71-.24-1.16,.21-.43,.56-.6,1.01-.62,.39-.02,.79-.12,1.17-.07,1.26,.18,1.97-.44,2.44-1.52,.15-.36,.38-.69,.63-.99,.55-.7,1.38-.62,1.76,.18,.3,.63,.56,1.29,.76,1.96,.17,.55,.48,.82,1.04,.91,.63,.1,1.26,.28,1.88,.44,.43,.11,.77,.34,.88,.81,.11,.48-.08,.89-.46,1.08-1.85,.96-2.38,2.45-1.94,4.42,.15,.67-.21,1.13-.93,1.23Zm-2.37-8.08q-1.06,1.31-2.82,1.63c1.06,.84,1.28,1.86,.75,3.11,1.14-.76,2.14-.6,3.16,.2-.3-1.34,.26-2.21,1.37-2.86q-1.72-.53-2.46-2.09Z"/>
  <path className="cls-3" d="M89.98,33.88c.02,.37-.2,.65-.49,.88-.52,.42-1.02,.88-1.57,1.26-.43,.3-.53,.65-.47,1.14,.09,.67,.14,1.34,.15,2.01,.02,1.05-.83,1.62-1.59,.95-1.57-1.38-3.09-1.49-4.89-.46-.86,.49-1.61-.23-1.43-1.23,.03-.16,.07-.34,.14-.48,.79-1.58,.4-2.87-.92-3.96-.15-.12-.27-.29-.37-.45-.45-.71-.13-1.44,.68-1.58,.41-.07,.85-.16,1.25-.1,1.32,.21,2.04-.43,2.6-1.54,.31-.63,.55-1.52,1.56-1.41,.95,.11,1.04,.99,1.19,1.64,.31,1.28,1.04,1.94,2.33,2.05,.36,.03,.72,.14,1.06,.25,.47,.15,.77,.45,.77,1.02Zm-8.44,0c1,.91,1.23,1.91,.66,3.16,1.14-.72,2.16-.62,3.31,.44-.34-1.51,.02-2.46,1.2-3.09-1.3-.17-2.16-.78-2.44-2.14-.55,1.21-1.35,1.82-2.72,1.63Z"/>
  <path className="cls-1" d="M69.26,32.96c2.29-.04,4.4,.49,6.45,1.3,.77,.3,1.06,.82,.83,1.4-.24,.6-.8,.8-1.55,.5-2.06-.82-4.18-1.29-6.4-1.17-3.64,.19-6.51,1.92-8.93,4.5-.89,.94-1.64,1.99-2.29,3.12-.46,.8-.98,1.01-1.56,.67-.57-.33-.66-.92-.21-1.68,2.51-4.19,5.89-7.25,10.79-8.36,.96-.22,1.94-.3,2.86-.28Z"/>
  <path className="cls-3" d="M68.87,30.63c-1.41,.02-2.71-.17-3.99-.51-.85-.22-1.24-.71-1.03-1.34,.26-.76,.86-.8,1.52-.63,2.24,.55,4.49,.73,6.71-.1,2.51-.93,3.73-2.93,4.35-5.39,.06-.24,.1-.5,.19-.73,.2-.54,.61-.83,1.18-.68,.55,.15,.85,.56,.74,1.15-.66,3.84-2.91,7.22-7.57,8.05-.72,.13-1.44,.2-2.09,.17Z"/>
  <path className="cls-1" d="M65.96,47.47c-1.08-.28-2.33-.41-3.6-.37-3.25,.11-5.88,1.45-7.91,3.98-.19,.24-.35,.52-.67,.6-.44,.11-.84,.05-1.13-.34-.36-.49-.21-.95,.11-1.39,1.55-2.06,3.57-3.47,6-4.28,2.51-.84,5.07-.79,7.63-.2,.62,.14,1.03,.52,.9,1.19-.11,.61-.55,.88-1.33,.8Z"/>
  <path className="cls-4" d="M64.81,18.18c.96,0,1.84,.86,1.84,1.83,0,.97-.86,1.83-1.83,1.84-.99,0-1.83-.83-1.83-1.82,0-.99,.83-1.84,1.82-1.84Z"/>
  <path className="cls-4" d="M52.32,53.09c-.02,.97-.91,1.82-1.87,1.79-.99-.03-1.81-.88-1.78-1.87,.03-1,.88-1.82,1.86-1.79,.97,.03,1.82,.91,1.8,1.87Z"/>
  <path className="cls-1" d="M47.91,42.79c.97,0,1.82,.84,1.82,1.83,0,.99-.84,1.83-1.81,1.83-.99,0-1.81-.83-1.81-1.83,0-1,.81-1.82,1.8-1.83Z"/>
  <path className="cls-1" d="M90.44,24.07c-1-.02-1.82-.86-1.79-1.84,.03-.99,.86-1.77,1.88-1.75,1.02,.02,1.8,.83,1.78,1.84-.02,1-.84,1.77-1.86,1.75Z"/>
  <path className="cls-3" d="M89.29,47.62c-.01,1.02-.79,1.78-1.83,1.76-1.04-.01-1.78-.78-1.76-1.83,.02-1.04,.79-1.79,1.82-1.77,1.02,.02,1.78,.81,1.77,1.84Z"/>
</svg>