<?xml version="1.0" encoding="utf-8"?>
<!-- Generator: Adobe Illustrator 26.2.1, SVG Export Plug-In . SVG Version: 6.00 Build 0)  -->
<svg version="1.1" id="Layer_1" xmlns="http://www.w3.org/2000/svg" xmlns:xlink="http://www.w3.org/1999/xlink" x="0px" y="0px"
	 viewBox="0 0 413 42" style="enable-background:new 0 0 413 42;" xml:space="preserve">
<style type="text/css">
	.st0{fill:#ED0006;}
	.st1{fill:#0099DF;}
	.st2{fill-rule:evenodd;clip-rule:evenodd;fill:#6C6BBD;}
	.st3{fill:#00579F;}
	.st4{fill:#FFFFFF;}
	.st5{fill:#FAA61A;}
	.st6{fill:#016FD0;}
	.st7{fill-rule:evenodd;clip-rule:evenodd;fill:#FFFFFF;}
	.st8{fill-rule:evenodd;clip-rule:evenodd;fill:#016FD0;}
	.st9{fill:#262626;}
	.st10{opacity:1.000000e-02;}
	.st11{fill:#FF5F00;}
	.st12{fill-rule:evenodd;clip-rule:evenodd;fill:#EB001B;}
	.st13{fill-rule:evenodd;clip-rule:evenodd;fill:#F79E1B;}
	.st14{fill:#253B80;}
	.st15{fill-rule:evenodd;clip-rule:evenodd;fill:#179BD7;}
</style>
<path d="M216.8,1.1h50.9c1.8,0,3.3,1.5,3.3,3.3v32.8c0,1.8-1.5,3.3-3.3,3.3h-50.9c-1.8,0-3.3-1.5-3.3-3.3V4.3
	C213.6,2.5,215,1.1,216.8,1.1z"/>
<path class="st0" d="M246.6,21c0,6.3-5,11.3-11.2,11.3s-11.2-5.1-11.2-11.3s5-11.3,11.2-11.3S246.6,14.7,246.6,21z"/>
<path class="st1" d="M261.1,21c0,6.3-5,11.3-11.2,11.3c-6.2,0-11.2-5.1-11.2-11.3s5-11.3,11.2-11.3C256.1,9.6,261.1,14.7,261.1,21z"
	/>
<path class="st2" d="M242.6,12.3c2.4,2.1,3.9,5.2,3.9,8.6s-1.5,6.5-3.9,8.6c-2.4-2.1-3.9-5.2-3.9-8.6S240.2,14.4,242.6,12.3z"/>
<path class="st3" d="M5,1.1h50.9c1.8,0,3.3,1.5,3.3,3.3v32.8c0,1.8-1.5,3.3-3.3,3.3H5c-1.8,0-3.3-1.5-3.3-3.3V4.3
	C1.7,2.5,3.2,1.1,5,1.1z"/>
<path class="st4" d="M26.3,27.5H23l2-12.6h3.2L26.3,27.5z"/>
<path class="st4" d="M38.1,15.2c-0.6-0.3-1.7-0.5-2.9-0.5c-3.2,0-5.5,1.7-5.5,4.2c0,1.8,1.6,2.8,2.8,3.4c1.3,0.6,1.7,1,1.7,1.6
	c0,0.8-1,1.2-2,1.2c-1.3,0-2-0.2-3-0.7l-0.4-0.2L28.3,27c0.8,0.3,2.2,0.7,3.6,0.7c3.4,0,5.6-1.7,5.7-4.3c0-1.4-0.9-2.5-2.7-3.4
	c-1.1-0.6-1.8-1-1.8-1.6c0-0.5,0.6-1.1,1.9-1.1c1.1,0,1.8,0.2,2.4,0.5l0.3,0.1L38.1,15.2z"/>
<path class="st4" d="M42.4,23c0.3-0.7,1.3-3.5,1.3-3.5c0,0,0.3-0.7,0.4-1.2l0.2,1.1c0,0,0.6,3,0.7,3.6C44.6,23,43,23,42.4,23z
	 M46.4,14.9h-2.5c-0.8,0-1.4,0.2-1.7,1l-4.8,11.5h3.4c0,0,0.6-1.6,0.7-1.9c0.4,0,3.7,0,4.2,0c0.1,0.4,0.4,1.9,0.4,1.9h3L46.4,14.9z"
	/>
<path class="st4" d="M20.3,14.9l-3.2,8.6l-0.3-1.7c-0.6-2-2.4-4.2-4.5-5.3l2.9,11h3.4l5.1-12.6H20.3z"/>
<path class="st5" d="M14.2,14.9H8.9l-0.1,0.3c4.1,1,6.8,3.6,7.9,6.6L15.6,16C15.5,15.1,14.9,14.9,14.2,14.9z"/>
<path class="st6" d="M146.2,0.2h50.9c1.8,0,3.3,1.5,3.3,3.3V38c0,1.8-1.5,3.3-3.3,3.3h-50.9c-1.8,0-3.3-1.5-3.3-3.3V3.5
	C142.9,1.7,144.4,0.2,146.2,0.2z"/>
<path class="st7" d="M154.1,30.8v-8.9h9.5l1,1.3l1.1-1.3h34.5v8.3c0,0-0.9,0.6-1.9,0.6h-19.1l-1.2-1.4v1.4h-3.8v-2.4
	c0,0-0.5,0.3-1.6,0.3h-1.3v2.1h-5.7l-1-1.4l-1,1.4H154.1z"/>
<path class="st7" d="M143,15.1l2.1-5h3.7l1.2,2.8v-2.8h4.6l0.7,2l0.7-2h20.7v1c0,0,1.1-1,2.9-1l6.7,0l1.2,2.8v-2.8h3.9l1.1,1.6v-1.6
	h3.9v8.9h-3.9l-1-1.6v1.6h-5.7l-0.6-1.4h-1.5l-0.6,1.4h-3.8c-1.5,0-2.5-1-2.5-1v1H171l-1.1-1.4v1.4h-21.6l-0.6-1.4h-1.5l-0.6,1.4
	H143V15.1z"/>
<path class="st8" d="M143,18l2.9-6.7h2.2L151,18h-1.9l-0.5-1.3h-3.1l-0.5,1.3H143z M147.9,15.2l-0.9-2.3l-0.9,2.3H147.9z"/>
<path class="st8" d="M151.2,17.9v-6.7l2.7,0l1.6,4.3l1.5-4.3h2.7v6.7h-1.7V13l-1.8,4.9h-1.5l-1.8-4.9v4.9H151.2z"/>
<path class="st8" d="M160.7,17.9v-6.7h5.5v1.5h-3.8v1.1h3.7v1.4h-3.7v1.2h3.8v1.5H160.7z"/>
<path class="st8" d="M167.2,18v-6.7h3.7c1.2,0,2.4,0.8,2.4,2.2c0,1.2-0.9,2-1.8,2.1l2.2,2.5h-2.1l-2-2.4h-0.7V18H167.2z M170.8,12.8
	h-1.9v1.4h1.9c0.3,0,0.8-0.3,0.8-0.7C171.6,13.1,171.3,12.8,170.8,12.8z"/>
<path class="st8" d="M175.7,17.9H174v-6.7h1.7V17.9z"/>
<path class="st8" d="M179.8,17.9h-0.4c-1.8,0-2.9-1.4-2.9-3.3c0-2,1.1-3.4,3.3-3.4h1.9v1.6h-1.9c-0.9,0-1.6,0.7-1.6,1.8
	c0,1.3,0.7,1.8,1.8,1.8h0.4L179.8,17.9z"/>
<path class="st8" d="M180.5,18l2.9-6.7h2.2l2.9,6.7h-1.9l-0.5-1.3H183l-0.5,1.3H180.5z M185.4,15.2l-0.9-2.3l-0.9,2.3H185.4z"/>
<path class="st8" d="M188.7,17.9v-6.7h2.1l2.7,4.2v-4.2h1.7v6.7h-2.1l-2.8-4.3v4.3H188.7z"/>
<path class="st8" d="M155.2,29.7V23h5.5v1.5h-3.8v1.1h3.7V27h-3.7v1.2h3.8v1.5H155.2z"/>
<path class="st8" d="M182.1,29.7V23h5.5v1.5h-3.8v1.1h3.7V27h-3.7v1.2h3.8v1.5H182.1z"/>
<path class="st8" d="M161,29.7l2.7-3.3l-2.7-3.4h2.1l1.6,2.1l1.6-2.1h2l-2.7,3.3l2.7,3.3h-2.1l-1.6-2.1l-1.5,2.1H161z"/>
<path class="st8" d="M168.5,29.7V23h3.7c1.5,0,2.4,1,2.4,2.3c0,1.5-1.1,2.3-2.6,2.3h-1.8v2.1H168.5z M172.1,24.5h-1.9V26h1.9
	c0.5,0,0.8-0.3,0.8-0.8C172.9,24.8,172.6,24.5,172.1,24.5z"/>
<path class="st8" d="M175.3,29.7V23h3.7c1.2,0,2.4,0.8,2.4,2.2c0,1.2-0.9,2-1.8,2.1l2.2,2.5h-2.1l-2-2.4H177v2.4H175.3z M178.9,24.5
	H177v1.4h1.9c0.3,0,0.8-0.3,0.8-0.7C179.7,24.8,179.4,24.5,178.9,24.5z"/>
<path class="st8" d="M188.4,29.7v-1.5h3.4c0.5,0,0.7-0.3,0.7-0.6c0-0.3-0.2-0.6-0.7-0.6h-1.5c-1.3,0-2.1-0.8-2.1-2
	c0-1.1,0.7-2.1,2.6-2.1h3.3l-0.7,1.5h-2.8c-0.5,0-0.7,0.3-0.7,0.6c0,0.3,0.2,0.6,0.6,0.6h1.6c1.5,0,2.1,0.8,2.1,1.9
	c0,1.2-0.7,2.1-2.2,2.1H188.4z"/>
<path class="st8" d="M194.6,29.7v-1.5h3.4c0.5,0,0.7-0.3,0.7-0.6c0-0.3-0.2-0.6-0.7-0.6h-1.5c-1.3,0-2.1-0.8-2.1-2
	c0-1.1,0.7-2.1,2.6-2.1h3.3l-0.7,1.5h-2.8c-0.5,0-0.7,0.3-0.7,0.6c0,0.3,0.2,0.6,0.6,0.6h1.6c1.5,0,2.1,0.8,2.1,1.9
	c0,1.2-0.7,2.1-2.2,2.1H194.6z"/>
<path class="st9" d="M75.6,0.2h50.9c1.8,0,3.3,1.5,3.3,3.3V38c0,1.8-1.5,3.3-3.3,3.3H75.6c-1.8,0-3.3-1.5-3.3-3.3V3.5
	C72.3,1.7,73.8,0.2,75.6,0.2z"/>
<g class="st10">
	<rect x="84.6" y="10.1" class="st4" width="32.7" height="21.3"/>
</g>
<rect x="96.7" y="13.8" class="st11" width="8.6" height="13.9"/>
<path class="st12" d="M97.6,20.7c0-2.7,1.3-5.3,3.4-6.9c-3.7-2.8-8.9-2.4-12.1,1c-3.2,3.4-3.2,8.6,0,12c3.2,3.4,8.4,3.8,12.1,1
	C98.8,26,97.5,23.5,97.6,20.7z"/>
<path class="st13" d="M114.6,26v0.6h-0.1L114.6,26h-0.2v-0.1h0.3V26H114.6z M115.3,25.9v0.7h-0.1V26l-0.1,0.5H115l-0.1-0.5v0.5h-0.1
	v-0.7h0.1l0.1,0.5L115.3,25.9L115.3,25.9z"/>
<path class="st13" d="M115.5,20.7c0,3.4-2,6.5-5,7.9c-3.1,1.5-6.8,1.1-9.5-1c2.2-1.7,3.4-4.2,3.4-6.9s-1.3-5.3-3.4-6.9
	c2.7-2.1,6.4-2.5,9.5-1C113.5,14.3,115.5,17.4,115.5,20.7L115.5,20.7z"/>
<path class="st14" d="M287.5,1.1h50.9c1.8,0,3.3,1.5,3.3,3.3v32.8c0,1.8-1.5,3.3-3.3,3.3h-50.9c-1.8,0-3.3-1.5-3.3-3.3V4.3
	C284.2,2.5,285.6,1.1,287.5,1.1z"/>
<path class="st7" d="M299.2,15.9h-2.8c-0.2,0-0.4,0.1-0.4,0.3l-1.1,7.2c0,0.1,0.1,0.3,0.2,0.3h1.3c0.2,0,0.4-0.1,0.4-0.3l0.3-1.9
	c0-0.2,0.2-0.3,0.4-0.3h0.9c1.9,0,2.9-0.9,3.2-2.7c0.1-0.8,0-1.4-0.4-1.8C300.8,16.2,300.1,15.9,299.2,15.9z M299.5,18.6
	c-0.2,1-0.9,1-1.7,1h-0.4l0.3-1.9c0-0.1,0.1-0.2,0.2-0.2h0.2c0.5,0,1,0,1.2,0.3C299.5,18,299.5,18.2,299.5,18.6z M307.6,18.5h-1.3
	c-0.1,0-0.2,0.1-0.2,0.2l-0.1,0.4l-0.1-0.1c-0.3-0.4-0.9-0.6-1.6-0.6c-1.5,0-2.8,1.1-3,2.7c-0.1,0.8,0.1,1.5,0.5,2.1
	c0.4,0.5,1,0.7,1.7,0.7c1.2,0,1.9-0.8,1.9-0.8l-0.1,0.4c0,0.1,0.1,0.3,0.2,0.3h1.2c0.2,0,0.4-0.1,0.4-0.3l0.7-4.6
	C307.8,18.7,307.7,18.5,307.6,18.5z M305.7,21.2c-0.1,0.8-0.7,1.3-1.5,1.3c-0.4,0-0.7-0.1-0.9-0.4c-0.2-0.2-0.3-0.6-0.2-0.9
	c0.1-0.8,0.7-1.3,1.5-1.3c0.4,0,0.7,0.1,0.9,0.4C305.7,20.5,305.8,20.8,305.7,21.2z M313.4,18.5h1.4c0.2,0,0.3,0.2,0.2,0.4l-4.5,6.5
	c-0.1,0.1-0.2,0.2-0.3,0.2h-1.4c-0.2,0-0.3-0.2-0.2-0.4l1.4-2l-1.5-4.4c-0.1-0.2,0.1-0.3,0.2-0.3h1.3c0.2,0,0.3,0.1,0.4,0.3l0.8,2.6
	l1.9-2.8C313.2,18.6,313.3,18.5,313.4,18.5z"/>
<path class="st15" d="M328.1,23.5l1.2-7.4c0-0.1,0.1-0.2,0.2-0.2h1.3c0.1,0,0.3,0.1,0.2,0.3l-1.1,7.2c0,0.2-0.2,0.3-0.4,0.3h-1.2
	C328.2,23.8,328.1,23.6,328.1,23.5z M319.2,15.9h-2.8c-0.2,0-0.4,0.1-0.4,0.3l-1.1,7.2c0,0.1,0.1,0.3,0.2,0.3h1.4
	c0.1,0,0.2-0.1,0.3-0.2l0.3-2c0-0.2,0.2-0.3,0.4-0.3h0.9c1.9,0,2.9-0.9,3.2-2.7c0.1-0.8,0-1.4-0.4-1.8
	C320.9,16.2,320.2,15.9,319.2,15.9z M319.6,18.6c-0.2,1-0.9,1-1.7,1h-0.4l0.3-1.9c0-0.1,0.1-0.2,0.2-0.2h0.2c0.5,0,1,0,1.2,0.3
	C319.6,18,319.6,18.2,319.6,18.6z M327.7,18.5h-1.3c-0.1,0-0.2,0.1-0.2,0.2l-0.1,0.4l-0.1-0.1c-0.3-0.4-0.9-0.6-1.6-0.6
	c-1.5,0-2.8,1.1-3,2.7c-0.1,0.8,0.1,1.5,0.5,2.1c0.4,0.5,1,0.7,1.7,0.7c1.2,0,1.9-0.8,1.9-0.8l-0.1,0.4c0,0.1,0.1,0.3,0.2,0.3h1.2
	c0.2,0,0.4-0.1,0.4-0.3l0.7-4.6C327.9,18.7,327.8,18.5,327.7,18.5z M325.8,21.2c-0.1,0.8-0.7,1.3-1.5,1.3c-0.4,0-0.7-0.1-0.9-0.4
	c-0.2-0.2-0.3-0.6-0.2-0.9c0.1-0.8,0.7-1.3,1.5-1.3c0.4,0,0.7,0.1,0.9,0.4C325.8,20.5,325.8,20.8,325.8,21.2z"/>
<path d="M358.1,1.1H409c1.8,0,3.3,1.5,3.3,3.3v32.8c0,1.8-1.5,3.3-3.3,3.3h-50.9c-1.8,0-3.3-1.5-3.3-3.3V4.3
	C354.8,2.5,356.3,1.1,358.1,1.1z"/>
<path class="st7" d="M368.5,15.7c0.8,0.1,1.5-0.4,2-1c0.5-0.6,0.8-1.4,0.7-2.2c-0.7,0-1.5,0.5-2,1.1
	C368.8,14.1,368.4,14.9,368.5,15.7z M377.7,26.2V13.5h4.7c2.4,0,4.1,1.7,4.1,4.2c0,2.5-1.7,4.2-4.2,4.2h-2.7v4.3H377.7z M371.2,15.9
	c-0.7,0-1.3,0.2-1.8,0.4c-0.3,0.1-0.6,0.2-0.8,0.2c-0.2,0-0.5-0.1-0.8-0.2c-0.4-0.2-0.9-0.4-1.4-0.4c-1.2,0-2.2,0.7-2.8,1.7
	c-1.2,2.1-0.3,5.2,0.9,6.9c0.6,0.8,1.3,1.8,2.2,1.7c0.4,0,0.7-0.1,1-0.3c0.3-0.1,0.7-0.3,1.2-0.3c0.5,0,0.9,0.1,1.2,0.3
	c0.3,0.1,0.6,0.3,1,0.3c0.9,0,1.5-0.8,2.1-1.7c0.6-0.9,0.9-1.8,0.9-1.9l0,0c0,0,0,0,0,0l0,0l0,0c-0.2-0.1-1.8-0.8-1.8-2.8
	c0-1.6,1.2-2.5,1.4-2.6l0,0c0,0,0,0,0,0C372.9,16,371.7,15.9,371.2,15.9z M390.1,26.3c1.2,0,2.4-0.6,2.9-1.6h0v1.5h1.8v-6.3
	c0-1.8-1.4-3-3.7-3c-2.1,0-3.6,1.2-3.7,2.8h1.8c0.1-0.8,0.9-1.3,1.8-1.3c1.2,0,1.9,0.6,1.9,1.6v0.7l-2.4,0.1
	c-2.3,0.1-3.5,1.1-3.5,2.7C387,25.2,388.3,26.3,390.1,26.3z M390.6,24.8c-1,0-1.7-0.5-1.7-1.3c0-0.8,0.6-1.3,1.8-1.3l2.2-0.1v0.7
	C392.9,24,391.9,24.8,390.6,24.8z M400.8,26.7c-0.8,2.2-1.7,3-3.6,3c-0.1,0-0.6,0-0.7,0v-1.5c0.1,0,0.4,0,0.6,0
	c0.9,0,1.3-0.4,1.6-1.3l0.2-0.6l-3.3-9.2h2l2.3,7.5h0l2.3-7.5h2L400.8,26.7z M379.6,15.2h2.2c1.7,0,2.7,0.9,2.7,2.5
	c0,1.6-1,2.5-2.7,2.5h-2.2V15.2z"/>
</svg>
